<svg width="349" height="157" viewBox="0 0 349 157" fill="none" xmlns="http://www.w3.org/2000/svg">
<path d="M0 78.79H12.01V12H38.36V0H0V78.79Z" fill="red"/>
<path d="M94.34 133.56H156.85V0H43.65V84.07H0V156.85H94.34V133.56ZM55.65 12H144.85V121.56H94.34V84.07H55.65V12ZM82.34 144.85H12.01V96.07H43.65V133.56H82.34V144.85ZM82.34 121.56H55.65V96.07H82.34V121.56Z" fill="red"/>
<path d="M187.024 59.328H179.544V57.934H196.034V59.328H188.554V80H187.024V59.328ZM200.644 80V57.934H210.946V59.294H202.208V67.318H210.096V68.644H202.208V78.572H211.286V80H200.644ZM217.545 80V57.934H219.109V78.572H229.241V80H217.545ZM233.881 80V57.934H244.183V59.294H235.445V67.318H243.333V68.644H235.445V78.572H244.523V80H233.881ZM250.781 80V58.07C252.481 57.8887 254.272 57.798 256.153 57.798C258.057 57.798 259.667 58.308 260.981 59.328C262.296 60.3253 262.953 61.844 262.953 63.884C262.953 65.924 262.058 67.6013 260.267 68.916C258.477 70.208 256.357 70.854 253.909 70.854C253.796 70.854 253.671 70.854 253.535 70.854V69.766C253.626 69.766 253.705 69.766 253.773 69.766C255.791 69.766 257.547 69.2333 259.043 68.168C260.539 67.1027 261.287 65.72 261.287 64.02C261.287 62.32 260.755 61.0847 259.689 60.314C258.647 59.5433 257.264 59.158 255.541 59.158C254.635 59.158 253.569 59.2033 252.345 59.294V80H250.781ZM268.471 72.35L265.309 80H263.711L272.959 57.798H273.877L283.193 80H281.459L278.263 72.35H268.471ZM273.333 60.314C272.993 61.334 272.687 62.184 272.415 62.864L269.015 71.024H277.719L274.353 62.898C273.831 61.6287 273.491 60.7673 273.333 60.314ZM287.67 80V58.036C289.619 57.8773 291.274 57.798 292.634 57.798C294.719 57.798 296.442 58.342 297.802 59.43C299.162 60.4953 299.842 62.0253 299.842 64.02C299.842 65.3573 299.457 66.5927 298.686 67.726C297.915 68.8593 297.043 69.7773 296.068 70.48C298.765 74.0613 300.431 76.2033 301.066 76.906C302.358 78.2433 303.763 79.0027 305.282 79.184L305.248 80.238C303.979 80.2153 302.947 80.034 302.154 79.694C301.361 79.3313 300.567 78.7307 299.774 77.892C299.003 77.0533 297.292 74.798 294.64 71.126C292.804 71.126 291.002 71.0693 289.234 70.956V80H287.67ZM293.79 69.834C294.674 69.834 295.626 69.2447 296.646 68.066C297.666 66.8873 298.176 65.516 298.176 63.952C298.176 62.388 297.643 61.198 296.578 60.382C295.513 59.566 294.13 59.158 292.43 59.158C291.523 59.158 290.458 59.2033 289.234 59.294V69.664C290.866 69.7773 292.385 69.834 293.79 69.834ZM310.706 59.328H303.226V57.934H319.716V59.328H312.236V80H310.706V59.328ZM330.514 80H328.984V72.112L320.654 57.934H322.524L328.95 68.882C329.449 69.8793 329.732 70.412 329.8 70.48C329.936 70.1853 330.219 69.664 330.65 68.916L337.076 57.934H338.844L330.514 72.18V80Z" fill="white"/>
<path d="M191.44 103V95.212H191.992V102.496H195.568V103H191.44ZM197.206 103V95.212H200.842V95.692H197.758V98.524H200.542V98.992H197.758V102.496H200.962V103H197.206ZM204.562 95.704H201.922V95.212H207.742V95.704H205.102V103H204.562V95.704ZM208.458 96.196L208.362 94.42H208.902L208.806 96.196H208.458ZM212.348 95.548C211.916 95.548 211.564 95.652 211.292 95.86C211.02 96.068 210.884 96.36 210.884 96.736C210.884 97.168 211.064 97.556 211.424 97.9C211.68 98.148 212.008 98.412 212.408 98.692C212.816 98.964 213.096 99.16 213.248 99.28C213.4 99.4 213.584 99.564 213.8 99.772C214.192 100.164 214.388 100.616 214.388 101.128C214.388 101.792 214.164 102.296 213.716 102.64C213.276 102.976 212.656 103.144 211.856 103.144C211.064 103.144 210.4 102.936 209.864 102.52L210.152 102.1C210.696 102.468 211.272 102.652 211.88 102.652C212.488 102.652 212.96 102.524 213.296 102.268C213.64 102.012 213.812 101.652 213.812 101.188C213.812 100.788 213.64 100.42 213.296 100.084C213.056 99.844 212.732 99.584 212.324 99.304C211.924 99.024 211.644 98.824 211.484 98.704C211.324 98.576 211.136 98.408 210.92 98.2C210.512 97.792 210.308 97.32 210.308 96.784C210.308 96.248 210.496 95.828 210.872 95.524C211.256 95.22 211.784 95.068 212.456 95.068C213.128 95.068 213.732 95.2 214.268 95.464L214.064 95.908C213.568 95.668 212.996 95.548 212.348 95.548ZM222.904 101.104L225.148 95.368H225.496L227.452 101.14L227.74 102.112C227.764 101.96 227.864 101.64 228.04 101.152L230.032 95.212H230.608L227.896 103.048H227.572C226.236 99.216 225.544 97.224 225.496 97.072C225.424 96.856 225.352 96.644 225.28 96.436C225.24 96.572 225.132 96.856 224.956 97.288L222.688 103.048H222.364L219.628 95.212H220.24L222.22 101.056C222.332 101.376 222.436 101.732 222.532 102.124C222.572 101.964 222.696 101.624 222.904 101.104ZM232.101 100.3L230.985 103H230.421L233.685 95.164H234.009L237.297 103H236.685L235.557 100.3H232.101ZM233.817 96.052C233.697 96.412 233.589 96.712 233.493 96.952L232.293 99.832H235.365L234.177 96.964C233.993 96.516 233.873 96.212 233.817 96.052ZM239.531 95.704H236.891V95.212H242.711V95.704H240.071V103H239.531V95.704ZM250.129 102.616C249.529 102.952 248.693 103.12 247.621 103.12C246.557 103.12 245.617 102.736 244.801 101.968C243.993 101.2 243.589 100.248 243.589 99.112C243.589 97.968 243.941 97.012 244.645 96.244C245.357 95.476 246.273 95.092 247.393 95.092C248.297 95.092 249.181 95.232 250.045 95.512L249.901 95.968C249.069 95.712 248.209 95.584 247.321 95.584C246.433 95.584 245.685 95.924 245.077 96.604C244.477 97.276 244.177 98.104 244.177 99.088C244.177 100.064 244.525 100.896 245.221 101.584C245.925 102.272 246.737 102.616 247.657 102.616C248.577 102.616 249.341 102.488 249.949 102.232L250.129 102.616ZM258.06 103V99.064H252.648V103H252.096V95.212H252.648V98.572H258.06V95.212H258.612V103H258.06ZM267.211 95.704H264.571V95.212H270.391V95.704H267.751V103H267.211V95.704ZM275.193 103.12C274.081 103.12 273.149 102.732 272.397 101.956C271.645 101.18 271.269 100.232 271.269 99.112C271.269 97.984 271.645 97.032 272.397 96.256C273.149 95.48 274.081 95.092 275.193 95.092C276.305 95.092 277.237 95.48 277.989 96.256C278.741 97.032 279.117 97.984 279.117 99.112C279.117 100.232 278.741 101.18 277.989 101.956C277.237 102.732 276.305 103.12 275.193 103.12ZM275.193 95.584C274.233 95.584 273.433 95.924 272.793 96.604C272.161 97.284 271.845 98.12 271.845 99.112C271.845 100.096 272.161 100.928 272.793 101.608C273.433 102.28 274.233 102.616 275.193 102.616C276.161 102.616 276.961 102.28 277.593 101.608C278.225 100.928 278.541 100.096 278.541 99.112C278.541 98.12 278.225 97.284 277.593 96.604C276.961 95.924 276.161 95.584 275.193 95.584ZM284.774 95.584C283.886 95.584 283.138 95.924 282.53 96.604C281.93 97.276 281.63 98.104 281.63 99.088C281.63 100.072 281.97 100.908 282.65 101.596C283.33 102.276 284.13 102.616 285.05 102.616C285.978 102.616 286.698 102.508 287.21 102.292V99.088H287.762V102.544C287.138 102.928 286.254 103.12 285.11 103.12C283.966 103.12 283.002 102.732 282.218 101.956C281.434 101.18 281.042 100.228 281.042 99.1C281.042 97.964 281.394 97.012 282.098 96.244C282.81 95.476 283.726 95.092 284.846 95.092C285.75 95.092 286.634 95.232 287.498 95.512L287.354 95.968C286.522 95.712 285.662 95.584 284.774 95.584ZM290.381 103V95.212H294.017V95.692H290.933V98.524H293.717V98.992H290.933V102.496H294.137V103H290.381ZM297.738 95.704H295.098V95.212H300.918V95.704H298.278V103H297.738V95.704ZM308.509 103V99.064H303.097V103H302.545V95.212H303.097V98.572H308.509V95.212H309.061V103H308.509ZM311.944 103V95.212H315.58V95.692H312.496V98.524H315.28V98.992H312.496V102.496H315.7V103H311.944ZM317.909 103V95.248C318.597 95.192 319.181 95.164 319.661 95.164C320.397 95.164 321.005 95.356 321.485 95.74C321.965 96.116 322.205 96.656 322.205 97.36C322.205 97.832 322.069 98.268 321.797 98.668C321.525 99.068 321.217 99.392 320.873 99.64C321.825 100.904 322.413 101.66 322.637 101.908C323.093 102.38 323.589 102.648 324.125 102.712L324.113 103.084C323.665 103.076 323.301 103.012 323.021 102.892C322.741 102.764 322.461 102.552 322.181 102.256C321.909 101.96 321.305 101.164 320.369 99.868C319.721 99.868 319.085 99.848 318.461 99.808V103H317.909ZM320.069 99.412C320.381 99.412 320.717 99.204 321.077 98.788C321.437 98.372 321.617 97.888 321.617 97.336C321.617 96.784 321.429 96.364 321.053 96.076C320.677 95.788 320.189 95.644 319.589 95.644C319.269 95.644 318.893 95.66 318.461 95.692V99.352C319.037 99.392 319.573 99.412 320.069 99.412Z" fill="red"/>
</svg>
