<svg xmlns="http://www.w3.org/2000/svg" xmlns:xlink="http://www.w3.org/1999/xlink" width="128" zoomAndPan="magnify" viewBox="0 0 96 95.999999" height="128" preserveAspectRatio="xMidYMid meet" version="1.0"><defs><g/></defs><g fill="#ff3131" fill-opacity="1"><g transform="translate(8.84005, 73.740177)"><g><path d="M 0.546875 -44.671875 L 0.546875 -55.84375 L 39.796875 -55.84375 L 39.796875 -44.671875 L 26.53125 -44.671875 L 26.53125 0 L 13.8125 0 L 13.8125 -44.671875 Z M 0.546875 -44.671875 "/></g></g></g><g fill="#ff3131" fill-opacity="1"><g transform="translate(46.749999, 73.740177)"><g><path d="M 4.0625 -55.84375 L 24.4375 -55.84375 C 30.125 -55.84375 34.722656 -54.375 38.234375 -51.4375 C 41.753906 -48.507812 43.515625 -44.242188 43.515625 -38.640625 C 43.515625 -33.046875 41.734375 -28.660156 38.171875 -25.484375 C 34.609375 -22.304688 30.03125 -20.71875 24.4375 -20.71875 L 16.78125 -20.71875 L 16.78125 0 L 4.0625 0 Z M 16.78125 -30.859375 L 20.375 -30.859375 C 23.21875 -30.859375 25.550781 -31.429688 27.375 -32.578125 C 29.207031 -33.734375 30.125 -35.625 30.125 -38.25 C 30.125 -40.90625 29.207031 -42.804688 27.375 -43.953125 C 25.550781 -45.109375 23.21875 -45.6875 20.375 -45.6875 L 16.78125 -45.6875 Z M 16.78125 -30.859375 "/></g></g></g><g fill="#ffffff" fill-opacity="1"><g transform="translate(2.250538, 52.579787)"><g><path d="M 4.796875 -7.472656 L 7.460938 -7.472656 L 7.460938 -9.34375 L 0.0703125 -9.34375 L 0.0703125 -7.472656 L 2.734375 -7.472656 L 2.734375 0 L 4.796875 0 Z M 4.796875 -7.472656 "/></g></g></g><g fill="#ffffff" fill-opacity="1"><g transform="translate(12.527644, 52.579787)"><g><path d="M 6.238281 -1.867188 L 2.886719 -1.867188 L 2.886719 -3.75 L 6.101562 -3.75 L 6.101562 -5.621094 L 2.886719 -5.621094 L 2.886719 -7.472656 L 6.238281 -7.472656 L 6.238281 -9.34375 L 0.824219 -9.34375 L 0.824219 0 L 6.238281 0 Z M 6.238281 -1.867188 "/></g></g></g><g fill="#ffffff" fill-opacity="1"><g transform="translate(22.337606, 52.579787)"><g><path d="M 0.824219 0 L 6.238281 0 L 6.238281 -1.867188 L 2.886719 -1.867188 L 2.886719 -9.34375 L 0.824219 -9.34375 Z M 0.824219 0 "/></g></g></g><g fill="#ffffff" fill-opacity="1"><g transform="translate(31.80408, 52.579787)"><g><path d="M 6.238281 -1.867188 L 2.886719 -1.867188 L 2.886719 -3.75 L 6.101562 -3.75 L 6.101562 -5.621094 L 2.886719 -5.621094 L 2.886719 -7.472656 L 6.238281 -7.472656 L 6.238281 -9.34375 L 0.824219 -9.34375 L 0.824219 0 L 6.238281 0 Z M 6.238281 -1.867188 "/></g></g></g><g fill="#ffffff" fill-opacity="1"><g transform="translate(41.614042, 52.579787)"><g><path d="M 2.886719 -3.339844 L 4.328125 -3.339844 C 5.839844 -3.339844 7.1875 -4.453125 7.1875 -6.347656 C 7.1875 -8.121094 5.839844 -9.34375 4.328125 -9.34375 L 0.824219 -9.34375 L 0.824219 0 L 2.886719 0 Z M 3.984375 -7.722656 C 4.589844 -7.722656 5.222656 -7.199219 5.222656 -6.347656 C 5.222656 -5.453125 4.589844 -4.960938 3.984375 -4.960938 L 2.886719 -4.960938 L 2.886719 -7.722656 Z M 3.984375 -7.722656 "/></g></g></g><g fill="#ffffff" fill-opacity="1"><g transform="translate(51.753745, 52.579787)"><g><path d="M 5.90625 -3.570312 L 3.542969 -3.570312 L 4.726562 -6.898438 Z M 9.398438 0 L 5.605469 -9.34375 L 3.859375 -9.34375 L 0.0703125 0 L 2.28125 0 L 2.953125 -1.882812 L 6.511719 -1.882812 L 7.1875 0 Z M 9.398438 0 "/></g></g></g><g fill="#ffffff" fill-opacity="1"><g transform="translate(63.968106, 52.579787)"><g><path d="M 2.886719 -3.339844 L 2.898438 -3.339844 L 5.125 0 L 7.734375 0 L 5.054688 -3.433594 C 6.238281 -3.722656 7.1875 -4.765625 7.1875 -6.347656 C 7.1875 -8.121094 5.839844 -9.34375 4.328125 -9.34375 L 0.824219 -9.34375 L 0.824219 0 L 2.886719 0 Z M 3.984375 -7.722656 C 4.589844 -7.722656 5.222656 -7.199219 5.222656 -6.347656 C 5.222656 -5.453125 4.589844 -4.960938 3.984375 -4.960938 L 2.886719 -4.960938 L 2.886719 -7.722656 Z M 3.984375 -7.722656 "/></g></g></g><g fill="#ffffff" fill-opacity="1"><g transform="translate(74.286427, 52.579787)"><g><path d="M 4.796875 -7.472656 L 7.460938 -7.472656 L 7.460938 -9.34375 L 0.0703125 -9.34375 L 0.0703125 -7.472656 L 2.734375 -7.472656 L 2.734375 0 L 4.796875 0 Z M 4.796875 -7.472656 "/></g></g></g><g fill="#ffffff" fill-opacity="1"><g transform="translate(84.563535, 52.579787)"><g><path d="M 3.558594 0 L 5.621094 0 L 5.621094 -4.464844 L 9.066406 -9.34375 L 6.609375 -9.34375 L 4.589844 -6.113281 L 2.570312 -9.34375 L 0.109375 -9.34375 L 3.558594 -4.464844 Z M 3.558594 0 "/></g></g></g></svg>