<svg xmlns="http://www.w3.org/2000/svg" xmlns:xlink="http://www.w3.org/1999/xlink" width="150" zoomAndPan="magnify" viewBox="0 0 112.5 60" height="80" preserveAspectRatio="xMidYMid meet" version="1.0"><defs><g/><clipPath id="abe551adf6"><path d="M 6 23.167969 L 27 23.167969 L 27 38.917969 L 6 38.917969 Z M 6 23.167969 " clip-rule="nonzero"/></clipPath></defs><g fill="#ffffff" fill-opacity="1"><g transform="translate(28.496004, 35.367666)"><g><path d="M 7.265625 0 L 4.65625 0 L 4.65625 -5.21875 L 0.0625 -13.28125 L 2.875 -13.28125 L 5.90625 -8.046875 L 6.140625 -8.046875 L 9.109375 -13.28125 L 11.859375 -13.28125 L 7.265625 -5.21875 Z M 7.265625 0 "/></g></g></g><g fill="#ffffff" fill-opacity="1"><g transform="translate(40.41743, 35.367666)"><g><path d="M 5.8125 0.1875 C 4.832031 0.1875 3.972656 -0.0078125 3.234375 -0.40625 C 2.492188 -0.8125 1.921875 -1.398438 1.515625 -2.171875 C 1.109375 -2.953125 0.90625 -3.894531 0.90625 -5 C 0.90625 -6.101562 1.109375 -7.046875 1.515625 -7.828125 C 1.921875 -8.609375 2.492188 -9.195312 3.234375 -9.59375 C 3.972656 -10 4.832031 -10.203125 5.8125 -10.203125 C 6.800781 -10.203125 7.664062 -10 8.40625 -9.59375 C 9.144531 -9.195312 9.71875 -8.609375 10.125 -7.828125 C 10.539062 -7.046875 10.75 -6.101562 10.75 -5 C 10.75 -3.894531 10.539062 -2.953125 10.125 -2.171875 C 9.71875 -1.398438 9.144531 -0.8125 8.40625 -0.40625 C 7.664062 -0.0078125 6.800781 0.1875 5.8125 0.1875 Z M 5.8125 -1.9375 C 7.375 -1.9375 8.15625 -2.957031 8.15625 -5 C 8.15625 -6.0625 7.953125 -6.835938 7.546875 -7.328125 C 7.148438 -7.828125 6.570312 -8.078125 5.8125 -8.078125 C 4.257812 -8.078125 3.484375 -7.050781 3.484375 -5 C 3.484375 -2.957031 4.257812 -1.9375 5.8125 -1.9375 Z M 5.8125 -1.9375 "/></g></g></g><g fill="#ffffff" fill-opacity="1"><g transform="translate(52.05739, 35.367666)"><g><path d="M 4.578125 0.1875 C 3.453125 0.1875 2.625 -0.117188 2.09375 -0.734375 C 1.5625 -1.347656 1.296875 -2.226562 1.296875 -3.375 L 1.296875 -10.015625 L 3.796875 -10.015625 L 3.796875 -3.6875 C 3.796875 -3.082031 3.925781 -2.640625 4.1875 -2.359375 C 4.457031 -2.078125 4.867188 -1.9375 5.421875 -1.9375 C 6.117188 -1.9375 6.660156 -2.164062 7.046875 -2.625 C 7.429688 -3.082031 7.625 -3.800781 7.625 -4.78125 L 7.625 -10.015625 L 10.140625 -10.015625 L 10.140625 0 L 7.71875 0 L 7.71875 -1.46875 L 7.53125 -1.515625 C 7.207031 -0.941406 6.816406 -0.515625 6.359375 -0.234375 C 5.898438 0.046875 5.304688 0.1875 4.578125 0.1875 Z M 4.578125 0.1875 "/></g></g></g><g fill="#ffffff" fill-opacity="1"><g transform="translate(63.642874, 35.367666)"><g><path d="M 10.640625 -13.28125 L 10.640625 -11.0625 L 6.8125 -11.0625 L 6.8125 0 L 4.1875 0 L 4.1875 -11.0625 L 0.359375 -11.0625 L 0.359375 -13.28125 Z M 10.640625 -13.28125 "/></g></g></g><g fill="#ffffff" fill-opacity="1"><g transform="translate(74.647267, 35.367666)"><g><path d="M 4.578125 0.1875 C 3.453125 0.1875 2.625 -0.117188 2.09375 -0.734375 C 1.5625 -1.347656 1.296875 -2.226562 1.296875 -3.375 L 1.296875 -10.015625 L 3.796875 -10.015625 L 3.796875 -3.6875 C 3.796875 -3.082031 3.925781 -2.640625 4.1875 -2.359375 C 4.457031 -2.078125 4.867188 -1.9375 5.421875 -1.9375 C 6.117188 -1.9375 6.660156 -2.164062 7.046875 -2.625 C 7.429688 -3.082031 7.625 -3.800781 7.625 -4.78125 L 7.625 -10.015625 L 10.140625 -10.015625 L 10.140625 0 L 7.71875 0 L 7.71875 -1.46875 L 7.53125 -1.515625 C 7.207031 -0.941406 6.816406 -0.515625 6.359375 -0.234375 C 5.898438 0.046875 5.304688 0.1875 4.578125 0.1875 Z M 4.578125 0.1875 "/></g></g></g><g fill="#ffffff" fill-opacity="1"><g transform="translate(86.232751, 35.367666)"><g><path d="M 7 0.1875 C 5.71875 0.1875 4.769531 -0.289062 4.15625 -1.25 L 3.953125 -1.203125 L 3.953125 0 L 1.4375 0 L 1.4375 -14.03125 L 3.953125 -14.03125 L 3.953125 -8.828125 L 4.15625 -8.796875 C 4.5 -9.273438 4.90625 -9.628906 5.375 -9.859375 C 5.84375 -10.085938 6.398438 -10.203125 7.046875 -10.203125 C 7.859375 -10.203125 8.566406 -10.007812 9.171875 -9.625 C 9.785156 -9.25 10.257812 -8.671875 10.59375 -7.890625 C 10.9375 -7.117188 11.109375 -6.15625 11.109375 -5 C 11.109375 -3.863281 10.929688 -2.90625 10.578125 -2.125 C 10.222656 -1.351562 9.738281 -0.773438 9.125 -0.390625 C 8.507812 -0.00390625 7.800781 0.1875 7 0.1875 Z M 6.234375 -1.9375 C 6.972656 -1.9375 7.535156 -2.179688 7.921875 -2.671875 C 8.304688 -3.171875 8.5 -3.945312 8.5 -5 C 8.5 -6.0625 8.304688 -6.835938 7.921875 -7.328125 C 7.535156 -7.828125 6.972656 -8.078125 6.234375 -8.078125 C 5.523438 -8.078125 4.960938 -7.820312 4.546875 -7.3125 C 4.140625 -6.800781 3.9375 -6.03125 3.9375 -5 C 3.9375 -3.96875 4.140625 -3.195312 4.546875 -2.6875 C 4.960938 -2.1875 5.523438 -1.9375 6.234375 -1.9375 Z M 6.234375 -1.9375 "/></g></g></g><g fill="#ffffff" fill-opacity="1"><g transform="translate(98.226814, 35.367666)"><g><path d="M 9.890625 -4.4375 L 3.453125 -4.4375 C 3.523438 -3.5625 3.773438 -2.925781 4.203125 -2.53125 C 4.628906 -2.132812 5.207031 -1.9375 5.9375 -1.9375 C 6.507812 -1.9375 6.972656 -2.046875 7.328125 -2.265625 C 7.691406 -2.484375 7.984375 -2.804688 8.203125 -3.234375 L 8.390625 -3.234375 L 10.0625 -2.171875 C 9.726562 -1.460938 9.234375 -0.890625 8.578125 -0.453125 C 7.921875 -0.0234375 7.039062 0.1875 5.9375 0.1875 C 4.90625 0.1875 4.007812 -0.00390625 3.25 -0.390625 C 2.5 -0.785156 1.921875 -1.375 1.515625 -2.15625 C 1.109375 -2.9375 0.90625 -3.882812 0.90625 -5 C 0.90625 -6.132812 1.117188 -7.09375 1.546875 -7.875 C 1.972656 -8.65625 2.550781 -9.238281 3.28125 -9.625 C 4.019531 -10.007812 4.84375 -10.203125 5.75 -10.203125 C 7.164062 -10.203125 8.25 -9.828125 9 -9.078125 C 9.757812 -8.328125 10.140625 -7.226562 10.140625 -5.78125 C 10.140625 -5.25 10.125 -4.835938 10.09375 -4.546875 Z M 7.734375 -6.0625 C 7.710938 -6.820312 7.535156 -7.375 7.203125 -7.71875 C 6.867188 -8.070312 6.382812 -8.25 5.75 -8.25 C 4.476562 -8.25 3.734375 -7.519531 3.515625 -6.0625 Z M 7.734375 -6.0625 "/></g></g></g><g clip-path="url(#abe551adf6)"><path fill="#e40914" d="M 26.414062 25.878906 C 26.21875 24.800781 25.296875 24.011719 24.222656 23.765625 C 22.617188 23.421875 19.644531 23.175781 16.425781 23.175781 C 13.210938 23.175781 10.191406 23.421875 8.582031 23.765625 C 7.511719 24.011719 6.585938 24.75 6.390625 25.878906 C 6.195312 27.109375 6 28.832031 6 31.042969 C 6 33.253906 6.195312 34.976562 6.4375 36.207031 C 6.632812 37.289062 7.558594 38.074219 8.628906 38.320312 C 10.335938 38.664062 13.257812 38.910156 16.476562 38.910156 C 19.691406 38.910156 22.617188 38.664062 24.320312 38.320312 C 25.390625 38.074219 26.316406 37.335938 26.511719 36.207031 C 26.707031 34.976562 26.953125 33.207031 27 31.042969 C 26.902344 28.832031 26.65625 27.109375 26.414062 25.878906 Z M 13.796875 34.484375 L 13.796875 27.601562 L 19.738281 31.042969 Z M 13.796875 34.484375 " fill-opacity="1" fill-rule="nonzero"/></g></svg>